<?xml version="1.0" standalone="no"?>
<!DOCTYPE svg PUBLIC "-//W3C//DTD SVG 20010904//EN"
 "http://www.w3.org/TR/2001/REC-SVG-20010904/DTD/svg10.dtd">
<svg version="1.0" xmlns="http://www.w3.org/2000/svg"
 width="960.000000pt" height="800.000000pt" viewBox="0 0 960.000000 800.000000"
 preserveAspectRatio="xMidYMid meet">
<metadata>
Created by potrace 1.13, written by Peter Selinger 2001-2015
</metadata>
<g transform="translate(0.000000,800.000000) scale(0.100000,-0.100000)"
fill="#000000" stroke="none">
<path d="M0 7915 l0 -85 356 0 357 0 -7 38 c-3 20 -6 58 -6 85 l0 47 -350 0
-350 0 0 -85z"/>
<path d="M720 7913 c3 -49 8 -87 13 -85 4 1 180 2 392 2 l385 0 0 85 0 85
-397 0 -398 0 5 -87z"/>
<path d="M1530 7915 l0 -85 390 0 390 0 0 85 0 85 -390 0 -390 0 0 -85z"/>
<path d="M2340 7915 l0 -85 218 2 c119 1 175 4 125 5 -72 3 -93 7 -93 18 0 19
-21 30 -29 16 -9 -15 -41 -3 -41 14 0 8 5 17 11 20 6 4 8 13 5 20 -3 9 6 16
27 21 l32 7 -35 12 -35 12 45 11 c39 8 26 10 -92 11 l-138 1 0 -85z"/>
<path d="M0 7740 c0 -31 1 -32 31 -26 17 3 177 6 355 6 225 0 324 3 324 11 0
6 -12 10 -27 9 -16 -1 -145 -1 -288 1 -187 2 -233 5 -165 9 l95 6 -95 2 c-52
1 -125 5 -162 9 l-68 6 0 -33z"/>
<path d="M7288 7683 c359 -3 411 -5 399 -18 -15 -15 -101 -24 -114 -12 -3 4
-16 -2 -27 -12 -18 -17 -40 -20 -181 -25 -100 -3 -161 -9 -163 -15 -6 -18 -82
-14 -82 4 0 8 -5 15 -11 15 -5 0 -7 -4 -4 -10 4 -6 -10 -10 -33 -10 -31 0 -41
-4 -45 -20 -3 -11 -12 -20 -21 -20 -10 0 -16 -9 -17 -22 0 -22 -1 -22 -10 2
-8 20 -12 22 -19 10 -7 -12 -12 -12 -22 -2 -9 9 -9 12 1 12 7 0 9 5 6 10 -3 6
-13 10 -21 10 -11 0 -13 -6 -9 -20 7 -23 4 -23 -72 -20 -33 1 -53 -2 -53 -9 0
-6 -6 -11 -14 -11 -7 0 -19 -7 -26 -14 -6 -8 -34 -22 -61 -31 -27 -9 -49 -21
-49 -26 0 -5 -18 -9 -40 -9 -29 0 -40 -4 -40 -15 0 -11 -11 -15 -40 -15 -34 0
-40 -3 -40 -21 0 -29 -18 -59 -35 -59 -8 0 -15 7 -15 15 0 8 -6 15 -14 15 -8
0 -16 10 -19 23 -3 21 -4 21 -12 3 -6 -13 -5 -21 3 -24 7 -2 12 -8 12 -14 0
-12 -58 -68 -71 -68 -5 0 -9 -18 -9 -40 0 -29 -4 -40 -15 -40 -18 0 -19 -11
-4 -44 6 -13 17 -23 23 -20 17 5 40 -17 55 -54 10 -24 16 -30 22 -20 10 16 34
-4 34 -30 0 -9 15 -25 34 -34 19 -9 39 -22 44 -27 6 -6 19 -11 29 -11 10 0 18
-4 18 -10 0 -5 18 -10 40 -10 29 0 40 -4 40 -15 0 -11 11 -15 40 -15 22 0 40
4 40 9 0 5 33 12 73 15 54 6 84 3 117 -8 27 -9 46 -12 48 -6 2 6 9 10 17 10 7
0 18 7 25 15 11 13 6 15 -36 16 l-49 1 65 12 c52 9 67 9 76 -1 15 -17 41 -16
48 2 3 8 12 12 21 9 9 -4 23 0 33 9 25 23 101 41 155 38 29 -2 47 1 47 8 0 6
19 11 43 11 60 0 118 11 111 21 -3 5 -14 9 -25 9 -10 0 -19 5 -19 11 0 8 12 9
38 5 20 -4 84 -9 142 -13 58 -3 112 -9 120 -13 8 -4 67 -4 130 -1 130 8 153 5
124 -16 -16 -12 -15 -13 13 -13 17 0 50 9 74 19 30 14 48 17 60 10 10 -5 29
-9 43 -9 14 0 26 -4 26 -10 0 -5 18 -10 40 -10 22 0 40 4 40 9 0 5 8 7 19 4
10 -2 18 -11 17 -20 0 -8 9 -22 22 -30 20 -14 22 -14 22 1 0 11 9 16 28 16 15
0 45 2 67 5 38 4 39 4 13 -7 -38 -16 -35 -28 5 -28 58 0 144 -28 172 -56 20
-20 29 -24 35 -14 8 14 37 2 59 -24 7 -8 33 -18 57 -22 52 -7 58 -28 12 -39
l-33 -7 29 -10 c22 -8 30 -7 37 3 6 11 11 10 27 -4 23 -21 36 -21 67 -1 23 15
25 15 31 0 3 -9 12 -16 20 -16 8 0 14 -6 14 -14 0 -8 16 -16 40 -20 25 -4 40
-12 40 -21 0 -9 -6 -12 -15 -9 -8 4 -23 3 -32 0 -14 -6 -12 -9 12 -22 19 -10
31 -11 33 -5 2 6 20 11 40 10 l37 -1 -35 -15 c-36 -15 -33 -22 18 -37 16 -6
22 -3 22 8 0 9 4 16 9 16 16 0 71 -51 71 -65 0 -8 8 -16 19 -20 10 -3 26 -14
36 -25 10 -11 29 -20 42 -20 23 0 30 -3 91 -34 18 -10 40 -15 48 -12 8 3 23
-3 34 -14 11 -11 27 -20 35 -20 13 0 15 49 15 378 0 281 -3 381 -12 390 -9 9
-9 12 0 12 7 0 12 5 12 10 0 6 -6 10 -14 10 -8 0 -16 4 -18 10 -4 12 -161 32
-235 30 -42 -1 -53 2 -53 14 0 12 -11 16 -37 17 -29 0 -33 2 -18 8 13 5 -5 8
-50 9 -230 1 -295 5 -295 18 0 7 -15 15 -37 17 -21 2 -3 2 40 -1 52 -3 77 -1
77 7 0 6 -14 11 -30 11 -18 0 -37 8 -47 20 -10 11 -29 20 -43 20 -26 0 -70 32
-70 50 0 6 -9 10 -20 10 -17 0 -18 3 -9 19 15 23 5 51 -21 58 -11 3 -17 9 -14
14 3 5 13 5 24 -1 24 -13 70 -13 70 0 0 6 -14 10 -31 10 -26 0 -31 3 -26 20 7
25 -7 34 -32 20 -20 -10 -51 -4 -51 11 0 5 208 10 473 12 259 1 -142 2 -893 2
-751 0 -1179 -1 -952 -2z"/>
<path d="M4670 6500 c-24 -24 -30 -25 -30 -5 0 17 -12 14 -85 -21 -27 -13 -58
-25 -68 -28 -14 -4 -17 -12 -12 -27 7 -21 5 -22 -34 -16 -22 3 -41 1 -41 -4 0
-5 -13 -9 -28 -9 -16 0 -37 -7 -48 -15 -10 -8 -38 -15 -61 -15 -29 0 -49 -6
-63 -20 -16 -16 -33 -20 -83 -20 -36 0 -68 -5 -75 -12 -9 -9 -15 -9 -23 -1
-16 16 -70 -4 -67 -25 2 -9 -5 -18 -14 -20 -11 -2 -18 3 -18 12 0 12 -10 16
-40 16 -27 0 -40 4 -40 14 0 15 -43 27 -60 16 -7 -5 1 -12 22 -20 l33 -12 -29
-13 c-31 -13 -117 -8 -127 8 -9 13 -51 -2 -46 -16 2 -7 14 -18 28 -25 22 -11
20 -12 -18 -6 -29 4 -43 3 -43 -5 0 -6 -16 -11 -36 -11 -39 0 -67 -12 -101
-43 -18 -16 -23 -17 -23 -6 0 9 -16 19 -40 26 -32 8 -40 8 -40 -3 0 -8 7 -14
15 -14 8 0 15 -3 15 -7 0 -11 -74 -75 -98 -84 -13 -5 -454 -10 -980 -11 -526
-1 -889 -4 -807 -8 209 -9 3402 -10 3555 -1 l125 8 -155 3 c-85 2 -123 5 -85
7 92 4 124 11 104 24 -12 8 -12 10 0 18 12 8 9 11 -12 16 -24 6 -27 12 -27 51
0 24 -1 47 -2 52 -1 4 10 9 26 12 30 6 74 64 56 75 -15 9 -12 36 5 55 13 15
13 19 0 36 -15 19 -15 19 -30 0 -12 -15 -12 -22 -3 -27 15 -9 11 -14 -18 -23
-13 -4 -26 -1 -34 9 -10 13 -9 15 9 15 11 0 21 5 21 10 0 6 -18 10 -40 10 -38
0 -40 2 -40 30 0 25 -4 30 -25 30 -14 0 -25 5 -25 10 0 6 -7 10 -15 10 -8 0
-15 -4 -15 -10 0 -5 -18 -10 -39 -10 -22 0 -41 -5 -44 -12 -4 -10 -7 -10 -18
0 -11 10 -10 12 4 12 9 0 17 7 17 15 0 8 -6 15 -12 15 -19 0 -43 -18 -43 -31
0 -7 -6 -14 -12 -16 -9 -3 -13 6 -13 26 0 37 -20 41 -50 11z"/>
<path d="M9550 6173 c-8 -2 -24 -8 -35 -13 -11 -4 -28 -11 -38 -14 -11 -3 -15
-11 -11 -17 4 -7 -1 -18 -11 -26 -17 -12 -17 -13 11 -14 24 -1 25 -2 6 -6 -13
-3 -30 1 -38 8 -11 9 -18 9 -26 1 -8 -8 -59 -12 -152 -12 -76 0 -137 -2 -135
-4 2 -2 111 -7 242 -11 l237 -7 0 61 c0 63 -5 69 -50 54z"/>
<path d="M0 5090 c0 -7 1607 -10 4800 -10 3193 0 4800 3 4800 10 0 7 -1607 10
-4800 10 -3193 0 -4800 -3 -4800 -10z"/>
<path d="M0 4739 l0 -281 31 7 c52 12 63 13 87 14 13 1 21 5 17 10 -7 12 28
23 48 15 19 -7 97 52 97 73 0 15 30 -1 83 -44 30 -24 71 -30 82 -13 5 8 11 8
20 0 9 -8 14 -8 17 0 2 6 30 18 63 28 47 13 94 16 211 14 83 -1 166 -7 185
-12 19 -6 84 -10 146 -10 66 0 113 -4 115 -10 2 -6 41 -13 88 -17 47 -3 94 -9
105 -14 l20 -8 -20 -2 c-11 -1 5 -5 35 -9 53 -6 56 -5 95 30 22 21 85 78 140
127 55 50 156 143 225 206 69 64 130 117 135 117 6 0 -26 -35 -70 -78 -250
-239 -331 -319 -342 -333 -10 -12 -8 -17 8 -28 19 -11 20 -10 14 8 -8 26 2 27
24 4 22 -25 40 -27 62 -7 11 10 22 14 26 11 3 -4 1 -7 -5 -7 -7 0 -12 -4 -12
-10 0 -17 17 -11 52 16 41 33 -303 -310 -429 -428 -51 -47 -93 -89 -93 -93 0
-9 47 31 186 160 279 258 384 351 384 339 0 -4 -19 -25 -42 -47 -28 -25 -34
-35 -18 -27 13 7 57 13 100 12 42 0 81 5 89 11 11 10 13 8 6 -13 -6 -20 -5
-23 6 -12 19 17 32 15 25 -5 -6 -15 -5 -15 11 -2 65 55 233 206 382 343 95 88
183 167 194 175 38 27 7 -9 -81 -92 -169 -159 -377 -369 -346 -348 17 11 35
17 39 13 5 -4 5 -2 1 5 -3 6 -2 14 4 18 5 3 10 1 10 -5 0 -7 7 -10 15 -6 17 6
20 -5 5 -19 -17 -18 97 -9 124 9 14 9 26 14 26 11 0 -15 -394 -393 -739 -708
l-204 -187 -192 0 -191 0 -43 37 c-24 20 -38 28 -31 17 7 -10 32 -35 56 -54
23 -19 43 -41 43 -47 1 -9 17 -13 45 -13 25 0 48 -5 52 -11 4 -8 -112 -10
-404 -8 -226 2 -408 7 -406 11 3 4 39 8 81 8 42 0 73 3 70 7 -4 3 -21 6 -39 5
-18 0 -35 3 -38 8 -3 5 -75 14 -160 20 -85 7 -183 14 -217 17 l-63 5 0 -506 0
-506 178 2 177 3 5 375 5 375 3 -382 2 -383 -185 0 -185 0 0 -54 c0 -50 2 -55
23 -54 12 1 37 1 55 0 28 -2 32 -5 32 -31 0 -17 -5 -33 -10 -36 -6 -4 -10 7
-10 24 0 30 -1 31 -47 30 -28 -1 -37 -4 -23 -6 42 -8 46 -22 11 -34 -24 -9
-29 -14 -19 -20 10 -6 10 -9 1 -9 -10 0 -13 -49 -13 -210 l0 -210 4801 0 4800
0 -2 117 c-2 112 -3 118 -28 140 -14 12 -31 21 -38 18 -7 -2 -10 2 -7 8 6 18
-61 81 -77 72 -8 -5 -10 -4 -5 4 5 7 -24 43 -76 93 -108 105 -37 47 115 -94
l117 -110 0 75 c0 54 -4 78 -15 87 -19 16 -19 60 0 86 19 25 19 58 0 74 -19
16 -19 74 0 90 12 10 15 49 15 231 l0 218 -182 0 c-101 0 -195 0 -210 0 l-28
1 0 135 0 135 211 0 212 0 -7 77 c-3 42 -6 150 -6 240 l0 163 -65 0 -65 0 0
-176 c0 -156 2 -178 18 -191 16 -12 15 -13 -8 -11 l-25 3 -3 189 c-1 111 2
194 7 199 5 5 41 9 80 8 l71 -1 -1 122 0 123 -140 130 c-141 132 -510 490
-453 441 31 -26 50 -35 39 -16 -4 7 2 9 18 5 14 -4 28 -2 31 4 4 5 13 8 21 4
9 -3 21 -1 28 4 6 5 39 16 72 23 33 7 71 20 85 29 14 9 39 21 55 27 26 9 31
17 35 57 3 26 3 50 -2 55 -18 18 13 33 78 38 132 10 134 11 134 49 l0 35
-4800 0 -4800 0 0 -281z m7599 214 c-32 -43 -31 -43 -358 -43 l-315 0 -100
-97 c-56 -54 -142 -137 -192 -186 l-92 -88 -98 3 c-53 2 -99 8 -101 13 -2 6
31 9 89 7 l93 -3 115 108 c64 59 153 143 199 186 l84 77 314 0 c300 0 316 1
340 20 32 25 40 26 22 3z m689 -732 c3 -434 2 -448 -35 -434 -16 6 -17 35 -1
51 7 7 8 12 2 12 -14 0 -14 233 0 242 8 5 7 8 -1 8 -16 0 -17 32 -1 48 9 9 9
12 0 12 -15 0 -16 46 -2 55 7 4 7 11 2 18 -13 16 -12 159 1 175 6 8 6 12 -2
12 -14 0 -15 37 -1 45 7 4 8 11 2 18 -13 17 -12 101 2 109 8 5 8 10 -1 19 -15
15 -5 41 16 37 14 -3 16 -45 19 -427z m-3501 241 c-105 -105 -127 -133 -87
-112 16 9 19 8 13 -6 -4 -10 -2 -15 3 -11 10 6 30 9 156 22 32 4 60 11 63 16
4 5 18 9 33 10 15 0 22 3 15 5 -19 8 18 44 45 44 13 0 21 4 17 9 -3 5 4 12 15
16 11 4 18 10 15 14 -2 5 23 7 55 5 37 -1 63 2 68 9 9 15 42 41 42 34 0 -10
-71 -80 -284 -281 l-219 -206 -1091 0 -1091 0 -185 -171 c-102 -93 -217 -199
-256 -235 l-71 -64 -249 1 c-137 0 -258 4 -269 9 -17 7 -14 9 13 9 18 1 31 5
28 10 -6 10 21 48 73 104 19 20 30 37 23 37 -27 0 -10 20 22 25 20 4 42 18 54
34 46 63 303 331 317 331 3 0 17 12 29 27 23 26 30 28 129 33 129 6 152 20 36
21 -46 0 -93 4 -104 9 -11 5 -14 9 -6 9 7 1 39 23 70 49 31 27 67 57 80 68 13
10 40 33 60 50 20 17 59 44 86 60 l50 29 228 0 c156 0 230 3 235 11 17 26 201
37 226 14 5 -5 21 -6 36 -3 15 3 31 0 34 -6 4 -6 22 -11 41 -11 19 0 37 -5 40
-10 4 -7 26 -9 53 -5 l47 5 -90 -90 c-49 -49 -86 -90 -82 -90 14 0 50 21 92
54 21 17 50 36 63 43 21 11 23 10 17 -6 -5 -17 2 -18 112 -16 123 3 320 11
458 19 44 2 143 0 220 -5 182 -12 192 -13 201 -21 4 -5 17 -8 28 -8 12 0 34
-7 50 -15 15 -8 44 -15 64 -15 46 0 90 32 277 204 86 78 64 51 -48 -62z m1993
89 c0 -3 -30 -34 -67 -68 l-68 -63 -181 0 -181 0 -41 44 c-46 49 -53 63 -23
44 11 -7 17 -16 15 -20 -3 -4 2 -8 11 -8 9 0 13 -5 9 -11 -4 -7 -1 -10 7 -7 8
3 13 12 11 19 -2 8 9 3 24 -11 25 -23 26 -23 15 -3 -9 18 -8 23 9 28 11 4 35
6 53 5 66 -4 93 0 77 10 -11 7 -7 10 18 10 17 0 32 -4 32 -10 0 -5 13 -10 30
-10 18 0 28 5 26 13 -1 6 -1 9 1 5 6 -11 93 -10 93 1 0 5 7 11 14 14 10 4 13
1 10 -7 -9 -22 19 -36 40 -20 11 7 16 17 12 21 -4 4 -11 1 -16 -7 -5 -8 -12
-11 -16 -8 -3 4 0 14 8 22 11 10 18 12 26 4 6 -6 16 -7 22 -3 9 6 9 10 -1 16
-10 6 -7 8 9 6 12 0 22 -4 22 -6z m304 -427 c3 -193 1 -214 -16 -214 -29 0
-54 69 -25 71 10 0 10 2 0 6 -15 6 -17 53 -3 53 6 0 5 8 -2 20 -10 16 -10 24
0 40 7 12 8 20 2 20 -15 0 -12 50 3 51 10 0 10 2 0 6 -20 8 -16 53 5 54 16 1
16 2 0 6 -23 6 -25 53 -3 53 9 0 18 7 22 15 3 9 7 14 10 11 2 -2 5 -89 7 -192z
m-1091 134 c8 -22 6 -280 -2 -338 -7 -43 -9 -16 -11 120 -2 96 -3 182 -4 190
-1 11 -16 16 -63 18 l-63 3 0 -180 c0 -156 2 -181 16 -189 20 -11 1 -27 -21
-18 -12 4 -15 39 -15 199 0 107 3 197 7 200 12 13 151 8 156 -5z m-33 -27 c0
-5 -5 -11 -11 -13 -6 -2 -12 -26 -13 -53 -1 -43 -4 -50 -21 -50 -13 0 -21 -8
-23 -24 -3 -20 0 -23 17 -18 16 4 21 0 21 -14 0 -11 -7 -19 -17 -19 -14 0 -14
-2 2 -20 18 -20 18 -21 0 -34 -10 -7 -19 -24 -20 -36 -2 -28 -25 -40 -25 -13
0 10 -3 78 -5 151 -3 74 -2 138 1 143 7 12 94 12 94 0z m-534 -48 c4 -16 6
-32 5 -36 -1 -5 34 -7 76 -6 l78 2 1 -139 1 -139 -7 115 c-4 63 -8 121 -9 128
-1 9 -42 12 -168 13 -219 0 -305 16 -113 20 74 1 118 4 97 6 -63 7 -66 63 -3
63 28 0 35 -4 42 -27z m113 -89 c-9 -11 -24 -14 -48 -11 -42 4 -98 -9 -118
-28 -14 -15 -18 -29 -5 -22 4 2 20 -9 37 -25 24 -22 26 -28 12 -28 -10 0 -15
5 -12 10 3 6 1 10 -4 10 -6 0 -11 -4 -11 -9 0 -12 -39 -21 -46 -10 -3 5 2 12
11 16 16 6 16 7 1 15 -11 6 -15 16 -11 29 7 22 -12 52 -27 43 -14 -9 -248 7
-248 17 0 5 109 9 241 9 219 0 240 -1 228 -16z m421 -364 c0 -5 -4 -10 -10
-10 -5 0 -10 -20 -10 -45 0 -39 -3 -47 -25 -55 -32 -12 -36 -55 -5 -47 16 4
20 0 20 -18 0 -19 -4 -22 -22 -18 l-23 5 23 -16 c27 -21 28 -33 2 -41 -25 -8
-27 -45 -2 -46 14 0 14 -2 -3 -9 -11 -5 -23 -9 -26 -9 -8 -1 -21 298 -13 310
7 12 94 11 94 -1z m-1790 -30 c60 -60 -21 -153 -88 -103 -39 29 -41 74 -6 102
34 26 68 27 94 1z m4220 -106 c0 -111 0 -114 -24 -120 -13 -3 -37 -4 -52 -2
l-29 3 -3 117 -3 118 56 -1 55 -2 0 -113z m142 2 c-1 -60 -4 -111 -7 -114 -9
-10 -57 -14 -82 -7 -22 5 -23 9 -23 121 l0 115 57 -3 56 -3 -1 -109z m146 -3
c1 -62 -1 -113 -5 -114 -78 -8 -93 -8 -100 3 -8 14 -14 208 -6 221 3 4 28 7
56 5 l52 -3 3 -112z m140 0 l-3 -118 -50 0 -50 0 -3 118 -3 117 56 0 56 0 -3
-117z m-5860 29 l3 -52 -125 0 -126 0 0 53 0 54 123 -2 122 -1 3 -52z m347 2
l0 -49 -125 0 -125 0 -3 39 c-2 21 -1 43 1 50 3 7 43 11 128 10 l124 -1 0 -49z
m943 -114 c2 0 2 -92 1 -205 l-1 -205 93 -88 c52 -49 111 -105 132 -124 20
-20 37 -39 37 -44 0 -4 -17 8 -37 27 -77 71 -81 73 -99 58 -24 -20 -165 -16
-240 6 -32 10 -52 20 -44 23 15 5 30 21 30 34 0 8 -58 24 -113 31 -47 6 -49 8
-32 30 9 13 27 18 68 18 31 1 60 -2 66 -6 6 -3 26 1 43 10 29 14 33 14 41 0 6
-12 13 -13 28 -5 15 9 21 7 25 -5 3 -8 11 -15 17 -15 6 0 -10 20 -37 45 -26
25 -51 43 -56 40 -11 -6 -42 24 -35 34 2 5 -6 18 -19 30 -19 18 -26 20 -32 9
-4 -7 -4 -10 1 -6 4 4 14 3 22 -3 15 -13 18 -33 3 -24 -6 4 -25 8 -42 11 -17
2 -34 7 -37 12 -3 5 -13 9 -21 10 -40 2 -124 13 -132 18 -5 3 -8 11 -7 17 5
42 1 44 -82 46 -54 1 -86 -2 -97 -11 -12 -10 -14 -10 -8 0 5 8 -1 12 -18 12
-14 0 -26 -4 -26 -10 0 -5 -5 -10 -11 -10 -5 0 -7 5 -4 10 3 6 -1 10 -9 10
-10 0 -16 -9 -16 -21 0 -18 -3 -19 -15 -9 -8 6 -19 9 -25 5 -14 -9 -13 -27 3
-20 6 4 0 -5 -15 -19 -16 -14 -28 -34 -28 -44 0 -11 -7 -25 -16 -33 -8 -7 -13
-20 -11 -30 4 -14 -4 -18 -40 -24 -24 -3 -60 -17 -80 -31 -20 -13 -47 -24 -60
-24 -13 0 -42 -9 -63 -20 -22 -11 -43 -19 -47 -18 -17 4 -83 -13 -83 -22 0 -6
-7 -10 -15 -10 -8 0 -15 -4 -15 -10 0 -5 -11 -10 -24 -10 -14 0 -28 -5 -31
-10 -4 -6 -16 -10 -28 -8 -15 2 -25 -5 -34 -23 -11 -24 -18 -26 -58 -23 -31 2
-43 -1 -39 -8 4 -6 2 -8 -4 -4 -6 3 -18 -4 -26 -16 -9 -12 -16 -17 -16 -10 0
7 19 31 43 53 57 55 15 32 -48 -25 -31 -28 -60 -46 -75 -46 -14 0 -187 0 -385
0 l-360 0 -67 -62 c-219 -205 -319 -296 -467 -424 -39 -33 -84 -47 -116 -34
-15 7 -9 9 25 10 45 1 47 3 260 210 130 127 208 210 197 210 -16 0 -17 11 -15
138 l3 137 275 0 275 0 3 -39 c2 -25 0 -36 -7 -31 -6 3 -11 17 -11 31 l0 24
-260 0 -260 0 0 -125 c0 -150 6 -155 90 -70 l54 55 253 0 252 0 3 78 3 77 213
1 214 1 51 52 52 51 -765 0 c-1678 -2 -1640 -2 -1639 18 0 10 3 12 6 5 4 -10
255 -13 1211 -13 l1207 1 99 94 100 95 70 0 c116 1 556 1 631 0 l70 -1 100
-94 c55 -52 106 -95 113 -95 9 0 12 44 12 185 l0 185 -962 1 c-530 1 -947 5
-928 10 24 5 1857 5 1898 -1z m1360 -72 l-3 -53 -122 -3 -123 -3 0 56 0 55
126 0 125 0 -3 -52z m-285 -203 l0 -110 -54 0 -54 0 -2 112 -2 112 32 3 c18 2
43 1 56 -2 23 -6 24 -8 24 -115z m287 64 l0 -49 -125 0 -125 0 0 49 c0 59 -2
58 153 53 l97 -3 0 -50z m-695 -359 l0 -325 -2 318 -3 318 -133 -3 -132 -3 -2
-245 c-2 -135 -4 -252 -7 -260 -2 -8 -4 105 -5 252 -1 246 0 267 17 271 9 2
73 4 142 3 l125 -1 0 -325z m1341 190 l1 -135 -7 115 c-4 63 -8 121 -9 128 -1
9 -60 12 -261 12 -143 0 -260 -3 -261 -7 0 -5 -1 -57 -1 -117 -1 -95 2 -111
18 -123 16 -12 16 -13 -9 -13 l-27 0 0 133 c0 74 3 137 7 140 4 4 128 6 277 5
l271 -3 1 -135z m-41 101 c12 -20 -25 -24 -236 -23 l-219 1 -2 -62 c0 -34 -1
-70 0 -79 1 -10 -3 -18 -8 -18 -6 0 -11 6 -11 13 -4 39 -5 163 -2 170 6 11
471 9 478 -2z m-605 -61 c0 -56 12 -51 -120 -55 -41 -1 -87 0 -102 3 -26 4
-28 8 -28 53 l0 49 125 0 125 0 0 -50z m3015 -1 c5 -5 -105 -9 -300 -9 -426
-1 -867 -10 -881 -18 -14 -9 -146 -127 -243 -219 -42 -39 -87 -81 -101 -93
-14 -12 -52 -47 -85 -78 -33 -31 -97 -90 -142 -129 l-81 -73 -744 1 c-408 1
-797 5 -863 9 l-120 6 148 2 c90 1 147 6 147 12 0 6 48 10 125 10 77 0 125 -4
125 -10 0 -7 203 -10 589 -10 l588 0 66 63 c58 54 65 65 60 90 l-5 27 -262 -2
-261 -3 -3 -50 c-3 -38 1 -52 14 -62 16 -12 16 -13 -5 -13 -21 0 -22 3 -19 73
l3 72 275 0 275 0 3 -31 3 -30 60 60 c40 41 59 67 55 78 -5 23 13 35 25 17 6
-11 19 -3 56 32 293 280 301 287 353 291 107 7 1136 -4 1145 -13z m-3309 -81
c5 -8 8 -131 4 -220 0 -5 -25 -8 -55 -8 l-54 0 0 112 c0 61 2 115 5 120 8 12
92 10 100 -4z m289 -53 l0 -50 -121 -3 -122 -3 -4 46 c-2 24 -2 49 0 55 3 7
47 10 125 8 l122 -3 0 -50z m1277 -60 c2 -5 -20 -11 -48 -13 -43 -2 -53 -7
-57 -23 -3 -12 -10 -18 -16 -15 -6 4 -8 13 -4 21 3 10 -2 15 -16 15 -12 0 -21
-6 -21 -15 0 -11 -11 -15 -42 -14 l-43 2 35 6 35 7 -29 7 c-16 5 -82 7 -148 6
-118 -1 -135 1 -124 19 8 13 475 10 478 -3z m-1272 -65 l0 -50 -124 0 -124 0
-4 33 c-8 68 -9 67 128 67 l124 0 0 -50z m-331 -72 c11 -10 13 -10 7 0 -9 15
20 17 29 2 5 -8 9 -158 6 -217 -1 -9 -19 -13 -56 -13 l-55 0 0 114 c0 82 4
116 13 119 22 9 43 7 56 -5z m326 -53 l0 -50 -122 -3 -123 -3 0 56 0 56 123
-3 122 -3 0 -50z m213 -68 l3 -117 -56 0 -55 0 0 121 0 121 53 -4 52 -3 3
-118z m142 1 l0 -118 -55 0 -55 0 0 113 c0 63 3 117 7 120 4 4 28 6 55 6 l48
-2 0 -119z m145 2 l-1 -115 -54 0 -55 0 -3 104 c-1 58 0 111 3 119 4 10 19 13
57 10 l53 -3 0 -115z m143 -2 l3 -118 -56 0 -55 0 0 113 c0 63 3 117 7 121 4
4 28 6 53 4 l45 -3 3 -117z m-638 -58 l0 -50 -125 0 -125 0 0 50 0 50 125 0
125 0 0 -50z m-4580 10 c24 -24 26 -57 4 -88 -23 -33 -86 -31 -113 4 -12 15
-21 32 -21 39 0 7 9 24 21 39 26 33 79 36 109 6z m7087 -373 c3 -4 -761 -6
-1698 -5 -937 2 -1513 5 -1279 8 590 7 2969 5 2977 -3z"/>
<path d="M2508 2990 c-1 -5 -1 -37 0 -70 l4 -60 122 0 122 0 54 55 54 54 -169
0 c-110 -1 -170 2 -173 9 -2 7 55 10 177 10 100 -1 184 1 188 5 3 4 -80 7
-184 7 -116 0 -193 -4 -195 -10z"/>
<path d="M240 4220 c0 -13 999 -13 1020 0 10 6 -165 10 -502 10 -339 0 -518
-3 -518 -10z"/>
<path d="M348 3874 c9 -8 26 -14 37 -14 15 0 17 -2 7 -9 -26 -16 37 -22 230
-21 l191 2 46 -34 c72 -52 71 -46 -4 26 l-70 66 -227 -2 c-189 -1 -224 -4
-210 -14z"/>
<path d="M9193 3364 c-2 -7 -3 -61 -1 -120 l3 -109 195 0 195 0 3 117 3 117
-197 3 c-141 2 -198 0 -201 -8z"/>
<path d="M578 1942 l-578 -2 0 -38 0 -39 567 -9 c572 -9 1046 -10 2258 -6 679
3 1782 -4 2100 -13 604 -16 859 -19 1465 -18 576 2 902 7 1245 18 39 2 425 4
860 6 434 2 776 7 760 10 -45 10 45 9 190 0 69 -5 121 -5 123 0 2 5 10 9 18 9
10 0 14 12 14 40 l0 40 -92 1 c-232 2 -8417 4 -8930 1z"/>
<path d="M0 240 l0 -240 400 0 c222 0 400 4 400 9 0 5 13 11 30 15 16 3 30 10
30 16 0 6 -14 13 -30 17 -37 7 -40 23 -4 23 27 0 27 0 21 60 -4 33 -3 60 1 60
14 0 33 60 29 92 -3 29 -4 28 -5 -9 -2 -31 -6 -43 -17 -43 -8 0 -15 -7 -15
-15 0 -8 -4 -15 -9 -15 -5 0 -7 26 -4 59 5 55 4 58 -18 64 -13 4 -39 7 -56 7
-23 0 -33 5 -33 15 0 11 12 15 43 17 l42 1 -40 4 c-22 3 -43 10 -47 16 -4 7
-8 -7 -8 -30 0 -37 -3 -43 -21 -43 -18 0 -20 5 -18 48 l3 47 -57 3 c-35 2 -57
-1 -57 -8 0 -5 -8 -10 -19 -10 -10 0 -24 -7 -31 -15 -18 -22 -30 -18 -30 10 0
23 -4 25 -40 25 -22 0 -40 -4 -40 -9 0 -6 -15 -4 -33 4 -17 7 -44 11 -58 8
-19 -3 -33 2 -52 21 -14 14 -32 23 -40 20 -7 -2 -31 -1 -53 3 -49 11 -84 6
-84 -12 0 -9 -7 -11 -22 -7 -12 3 -17 7 -10 10 20 6 3 22 -24 22 l-24 0 0
-240z"/>
</g>
</svg>
